Coordinates
nRows=152
nColumns=2
inDegrees=yes
endheader
time	ankle_angle_r	
2.64819	 18.781102	
2.71976	 18.853867	
2.79133	 18.778799	
2.8629	 18.728072	
2.93448	 18.768547	
3.00605	 18.777378	
3.07762	 18.753933	
3.14919	 18.751496	
3.22077	 18.771736	
3.29234	 18.765492	
3.36391	 18.736877	
3.43548	 18.745582	
3.50706	 18.765731	
3.57863	 18.758127	
3.6502	 18.733540	
3.72177	 18.743528	
3.79335	 18.773039	
3.86492	 18.758081	
3.93649	 18.738455	
4.00806	 18.764569	
4.07964	 18.785353	
4.15121	 18.737557	
4.22278	 18.711094	
4.29435	 18.760423	
4.36593	 18.772174	
4.4375	 18.738236	
4.50907	 18.750052	
4.58065	 18.792770	
4.65222	 18.779705	
4.72379	 18.736470	
4.79536	 18.735605	
4.86694	 18.758939	
4.93851	 18.759586	
5.01008	 18.741484	
5.08165	 18.763994	
5.15323	 18.782780	
5.2248	 18.753935	
5.29637	 18.759602	
5.36794	 18.803700	
5.43952	 18.814047	
5.51109	 18.779608	
5.58266	 18.781833	
5.65423	 18.827012	
5.72581	 18.817765	
5.79738	 18.768553	
5.86895	 18.764091	
5.94052	 18.801400	
6.0121	 18.793486	
6.08367	 18.747421	
6.15524	 18.750675	
6.22681	 18.769761	
6.29839	 18.741265	
6.36996	 18.737674	
6.44153	 18.792864	
6.5131	 18.787658	
6.58468	 18.745000	
6.65625	 18.757219	
6.72782	 18.777695	
6.7994	 18.768276	
6.87097	 18.738624	
6.94254	 18.754163	
7.01411	 18.800255	
7.08569	 18.802631	
7.15726	 18.779249	
7.22883	 18.766564	
7.3004	 18.783451	
7.37198	 18.768221	
7.44355	 18.735581	
7.51512	 18.766104	
7.58669	 18.777600	
7.65827	 18.733963	
7.72984	 18.732503	
7.80141	 18.776651	
7.87298	 18.771294	
7.94456	 18.722255	
8.01613	 18.726054	
8.0877	 18.778226	
8.15927	 18.773067	
8.23085	 18.734446	
8.30242	 18.766058	
8.37399	 18.800409	
8.44556	 18.779836	
8.51714	 18.772321	
8.58871	 18.808185	
8.66028	 18.819480	
8.73185	 18.766934	
8.80343	 18.745748	
8.875	 18.771071	
8.94657	 18.767611	
9.01815	 18.734034	
9.08972	 18.727463	
9.16129	 18.766218	
9.23286	 18.770323	
9.30444	 18.740611	
9.37601	 18.744852	
9.44758	 18.772371	
9.51915	 18.765436	
9.59073	 18.725722	
9.6623	 18.749350	
9.73387	 18.789298	
9.80544	 18.757785	
9.87702	 18.743232	
9.94859	 18.782972	
10.0202	 18.793280	
10.0917	 18.756712	
10.1633	 18.765437	
10.2349	 18.819002	
10.3065	 18.817498	
10.378	 18.772981	
10.4496	 18.782675	
10.5212	 18.822175	
10.5927	 18.800722	
10.6643	 18.785692	
10.7359	 18.818010	
10.8075	 18.822392	
10.879	 18.793611	
10.9506	 18.790524	
11.0222	 18.834004	
11.0937	 18.844329	
11.1653	 18.800783	
11.2369	 18.779754	
11.3085	 18.799430	
11.38	 18.800465	
11.4516	 18.777196	
11.5232	 18.803035	
11.5948	 18.821732	
11.6663	 18.785103	
11.7379	 18.759276	
11.8095	 18.775875	
11.881	 18.798829	
11.9526	 18.746283	
12.0242	 18.714907	
12.0958	 18.785428	
12.1673	 18.794167	
12.2389	 18.726951	
12.3105	 18.752232	
12.3821	 18.832152	
12.4536	 18.814099	
12.5252	 18.768978	
12.5968	 18.775062	
12.6683	 18.778830	
12.7399	 18.765323	
12.8115	 18.751423	
12.8831	 18.778002	
12.9546	 18.801340	
13.0262	 18.787077	
13.0978	 18.794558	
13.1694	 18.806946	
13.2409	 18.801797	
13.3125	 18.766774	
13.3841	 18.740889	
13.4556	 18.813914	
